<svg width="198" height="47" viewBox="0 0 198 47" xmlns="http://www.w3.org/2000/svg">
<g clip-path="url(#clip0_677_4709)">
<path d="M190.639 23.5196C190.639 14.3589 183.491 6.98331 174.532 6.98331C165.573 6.98331 158.483 14.3785 158.483 23.5196C158.483 32.6607 165.573 39.9971 174.532 39.9971C183.491 39.9971 190.639 32.6018 190.639 23.5196ZM151.16 23.5196C151.16 10.4946 161.639 0 174.513 0C187.387 0 197.982 10.4946 197.982 23.5196C197.982 36.5447 187.445 47 174.513 47C161.58 47 151.16 36.5054 151.16 23.5196Z" fill="black"/>
<path d="M100.245 23.5196C100.245 14.3589 93.0969 6.98331 84.1376 6.98331C75.1784 6.98331 68.0889 14.3785 68.0889 23.5196C68.0889 32.6607 75.1784 39.9971 84.1376 39.9971C93.0969 39.9971 100.245 32.6018 100.245 23.5196ZM60.7656 23.5196C60.7656 10.4946 71.2441 0 84.1182 0C96.9923 0 107.607 10.4946 107.607 23.5196C107.607 36.5447 97.0507 47 84.1182 47C71.1856 47 60.7656 36.5054 60.7656 23.5196Z" fill="black"/>
<path d="M30.3828 31.2286V0.588379H36.927V31.2875C36.927 36.9761 39.6148 40.2128 43.6075 40.2128C47.6002 40.2128 50.288 36.9761 50.288 31.2875V0.588379H56.8322V31.2286C56.8322 40.9974 51.4371 46.431 43.6075 46.431C35.7779 46.431 30.3828 41.1347 30.3828 31.2286Z" fill="black"/>
<path d="M118.341 16.4774H125.022C128.177 16.4774 129.832 14.5354 129.832 11.5734C129.832 8.61133 127.339 6.47319 124.379 6.47319H118.341V16.497V16.4774ZM111.797 0.588379H124.963C131.644 0.588379 136.571 4.66851 136.571 11.5734C136.571 13.8292 136.065 16.6735 133.806 19.0667C131.819 21.2048 128.8 22.3622 125.586 22.3622H118.341V45.8229H111.797V0.588379Z" fill="black"/>
<path d="M147.029 0.588379H140.484V45.8426H147.029V0.588379Z" fill="black"/>
<path d="M26.6441 0.588379L14.2569 12.9269L27.8517 45.8426H20.6063L9.11509 17.6543L6.54417 20.2436V45.8426H0V0.588379H6.54417V12.6719L18.4249 0.588379H26.6441Z" fill="black"/>
</g>
<defs>
<clipPath id="clip0_677_4709">
<rect width="198" height="47" fill="white"/>
</clipPath>
</defs>
</svg>