<svg xmlns="http://www.w3.org/2000/svg" width="710.59" height="116.841" viewBox="0 0 710.59 116.841">
  <g id="Layer_2" data-name="Layer 2" transform="translate(0.04)">
    <g id="BLC_Turva" data-name="BLC Turva" transform="translate(-0.04 0)">
      <path id="Path_2924" data-name="Path 2924" d="M430.856,36.023a6.664,6.664,0,0,0-2.088-5.5,9.329,9.329,0,0,0-6.1-1.731H413.86v15.65h9.206a7.9,7.9,0,0,0,4.053-1.017,7.007,7.007,0,0,0,2.748-2.954A9.617,9.617,0,0,0,430.856,36.023Z" transform="translate(154.826 10.76)" fill="none"/>
      <path id="Path_2925" data-name="Path 2925" d="M499.511,28.81a.742.742,0,0,0-.728.673L492.16,52.978h14.77L500.184,29.5a.769.769,0,0,0-.673-.687Z" transform="translate(184.108 10.774)" fill="none"/>
      <path id="Path_2926" data-name="Path 2926" d="M434.043,50.64h0a.783.783,0,0,1-.769-.769.769.769,0,0,1,.756-.769h0a19.084,19.084,0,0,0,8.244-3.16,12.256,12.256,0,0,0,5-10.511c0-4.3-1.374-7.571-4.122-9.769s-6.7-3.311-11.734-3.311H404.75V76.718h12.517v-21.2h5.688a11.253,11.253,0,0,1,8.34,3.229c2.171,1.992,2.446,3.174,3.586,6.471s3.49,11.5,3.49,11.5h13.547S448.126,66.125,447,62.552C444.939,56.081,438.412,50.64,434.043,50.64Zm-3.517-4.809a7.9,7.9,0,0,1-4.053,1.017h-9.206V31.253h8.807a9.329,9.329,0,0,1,6.1,1.731,6.664,6.664,0,0,1,2.089,5.5,9.617,9.617,0,0,1-.975,4.452,7.008,7.008,0,0,1-2.762,2.9Z" transform="translate(151.419 8.358)" fill="#fff"/>
      <path id="Path_2927" data-name="Path 2927" d="M467.581,67.206a.728.728,0,0,1-1.456,0L454.446,22.36H440.5l16.625,54.354h19.236L492.848,22.36H479.37Z" transform="translate(164.789 8.362)" fill="#fff"/>
      <path id="Path_2928" data-name="Path 2928" d="M514.432,22.37H495.2L477.61,76.738h13.946l3.421-12.118H515l3.462,12.118h13.465ZM497.6,55.345l6.65-23.454a.742.742,0,0,1,.728-.673.769.769,0,0,1,.728.687L512.4,55.387Z" transform="translate(178.667 8.366)" fill="#fff"/>
      <path id="Path_2929" data-name="Path 2929" d="M396.381,56.332v1.731a9.22,9.22,0,0,1-3.037,7.364,11.912,11.912,0,0,1-8.148,2.652,12.242,12.242,0,0,1-8.244-2.611,9.165,9.165,0,0,1-3.036-7.406V22.34H361.4V58.86q0,8.986,6.224,13.946t17.573,4.96q11.335,0,17.532-4.96t6.21-13.946V22.381H396.409Z" transform="translate(135.208 8.355)" fill="#fff"/>
      <path id="Path_2930" data-name="Path 2930" d="M320.43,31.507h17.793V76.738h12.709V31.507h17.9V22.37H320.43Z" transform="translate(119.886 8.366)" fill="#fff"/>
      <path id="Path_2931" data-name="Path 2931" d="M182.654,54.94a1.374,1.374,0,1,1,0-2.6c10.319,0,17.862-12.792,17.862-20.527,0-14.866-11.706-25.556-26.573-25.556h-48.8V105.9h52.211c16.172,0,28.153-11.267,28.153-27C205.559,64.613,194.622,54.94,182.654,54.94ZM146.794,26.512H168.31a9.082,9.082,0,0,1,9.247,9.384,9.247,9.247,0,0,1-9.247,9.384H146.794Zm25.13,59.218h-25.13V64.159h25.13A10.607,10.607,0,0,1,182.654,75a10.483,10.483,0,0,1-10.731,10.689Z" transform="translate(46.854 2.341)" fill="#fff"/>
      <path id="Path_2932" data-name="Path 2932" d="M260.177,103.1A49.765,49.765,0,0,1,242.316,84.81H209.107V6.26H186.67v99.627h73.356a1.374,1.374,0,0,0,1.374-1.374C261.318,103.743,260.878,103.551,260.177,103.1Z" transform="translate(69.864 2.341)" fill="#fff"/>
      <path id="Path_2933" data-name="Path 2933" d="M304.642,70.236a29.389,29.389,0,0,1-26.751,16.35c-16.886,0-29.746-12.847-29.746-30.035S261,26.516,277.891,26.516A29.334,29.334,0,0,1,305,43.622a1.594,1.594,0,0,0,1.841.8c1.814-.577,20.761-5.647,20.761-5.647C320.429,18.74,301.289,5,277.836,5,247.8,5,225.13,27.231,225.13,56.551s22.671,51.5,52.706,51.5c23.138,0,42.057-13.341,49.463-32.975a.737.737,0,0,1,.1-.261s-17.862-5.331-19.813-5.881a2.226,2.226,0,0,0-2.94,1.305Z" transform="translate(84.247 1.87)" fill="#fff"/>
      <path id="Path_2934" data-name="Path 2934" d="M103.063,56.566a51.551,51.551,0,1,0-51.5,51.5,51.551,51.551,0,0,0,51.5-51.5Z" transform="translate(0.04 1.855)" fill="#fff"/>
      <path id="Path_2935" data-name="Path 2935" d="M91.523,46.186,91.4,47.491A56.718,56.718,0,0,1,44.3,97.738,58.421,58.421,0,0,0,119.566,44.4H93.818C92.307,44.4,91.633,44.8,91.523,46.186Z" transform="translate(16.622 16.604)" fill="#fff"/>
      <path id="Path_2936" data-name="Path 2936" d="M61.214,0A58.3,58.3,0,0,0,44.3,2.5,56.718,56.718,0,0,1,91.4,52.747l.124,1.374c.11,1.374.783,1.786,2.295,1.786h25.748A58.407,58.407,0,0,0,61.214,0Z" transform="translate(16.622 0)" fill="#fff"/>
    </g>
  </g>
</svg>