<?xml version="1.0" encoding="UTF-8"?>
<!-- Generator: Adobe Illustrator 25.0.0, SVG Export Plug-In . SVG Version: 6.00 Build 0)  -->
<svg version="1.1" id="Layer_1" xmlns="http://www.w3.org/2000/svg" xmlns:xlink="http://www.w3.org/1999/xlink" x="0px" y="0px" width="215px" height="50px" viewBox="0 0 215 50" enable-background="new 0 0 215 50" xml:space="preserve">
<g id="varit_vaaka_1_">
	<path fill="#D58C00" d="M91.2,24.5L86,11.9c-0.1-0.3-0.4-0.6-0.7-0.7L72.7,6c-0.3-0.1-0.7-0.1-1,0l-12.6,5.2   c-0.3,0.1-0.6,0.4-0.7,0.7l-5.2,12.6c-0.1,0.3-0.1,0.7,0,1l5.2,12.6c0.1,0.3,0.4,0.6,0.7,0.7L71.6,44c0.2,0.1,0.3,0.1,0.5,0.1   c0.2,0,0.4,0,0.5-0.1l12.6-5.2c0.3-0.1,0.6-0.4,0.7-0.7l5.2-12.6C91.3,25.2,91.3,24.8,91.2,24.5z M72.1,37.4L66.4,25l1-2.1h9.5   l0.9,2.1L72.1,37.4z M79.3,28.2l3.9,8.5l-9.6,4L79.3,28.2z M70.6,40.7l-9.5-4l3.9-8.4L70.6,40.7z M72.2,12.5l3.5,7.6h-7L72.2,12.5z    M64.9,21.7l-3.9-8.5l9.6-3.9L64.9,21.7z M73.7,9.3l9.5,3.9l-3.9,8.4L73.7,9.3z M55.8,25l3.6-8.7l4,8.7l-4,8.7L55.8,25z M84.8,33.7   l-4-8.7l4-8.7l3.6,8.7L84.8,33.7z"/>
	<g>
		<path fill="#FFFFFF" d="M14.1,26.4l3.1-7.7h3.6l-5.4,12.6h-2.5L7.5,18.7H11L14.1,26.4z"/>
		<path fill="#FFFFFF" d="M30.1,29.1l-0.9,2.2h-3.5l4.9-12.6h3.6L39,31.3h-3.5l-0.8-2.2H30.1z M32.4,22.6L32.4,22.6l-1.4,4h2.7    L32.4,22.6z"/>
	</g>
	<g>
		<path fill="#FFFFFF" d="M108.5,28l3.8-9.4h1.7l-5.5,13.3L103,18.6h1.7L108.5,28z"/>
		<path fill="#FFFFFF" d="M122,28.1l-1.4,3.2h-1.7l6-13.2l6,13.2h-1.7l-1.4-3.2H122z M124.9,21.5l-2.2,5.1h4.5L124.9,21.5z"/>
		<path fill="#FFFFFF" d="M146.3,31.3h-1.9l-3.7-5.3H140v5.3h-1.6V18.6h1.9c1.1,0,2.3,0,3.3,0.6c1.1,0.6,1.7,1.8,1.7,3    c0,1.8-1.2,3.3-3,3.5L146.3,31.3z M140,24.6h0.5c1.6,0,3.4-0.3,3.4-2.3c0-2-1.9-2.3-3.4-2.3H140V24.6z"/>
		<path fill="#FFFFFF" d="M155.1,18.6v7.5c0,2.1,0.6,4,3.1,4c2.4,0,3.1-1.9,3.1-4v-7.5h1.6v8c0,2.8-1.7,4.9-4.6,4.9    s-4.6-2.1-4.6-4.9v-8H155.1z"/>
		<path fill="#FFFFFF" d="M176.9,21c-0.5-0.8-1.1-1.2-2-1.2c-1,0-2.1,0.7-2.1,1.8c0,1,1,1.5,1.8,1.8l0.9,0.4    c1.8,0.7,3.1,1.7,3.1,3.8c0,2.3-1.8,3.9-4,3.9c-2,0-3.6-1.5-3.9-3.5l1.6-0.3c0,1.4,1.1,2.4,2.4,2.4c1.4,0,2.3-1.1,2.3-2.5    c0-1.4-1.1-1.9-2.2-2.4l-0.9-0.4c-1.4-0.6-2.8-1.4-2.8-3.2c0-2,1.8-3.3,3.7-3.3c1.4,0,2.6,0.7,3.3,1.9L176.9,21z"/>
		<path fill="#FFFFFF" d="M190.2,31.3h-1.6V20.1h-3v-1.4h7.6v1.4h-3V31.3z"/>
		<path fill="#FFFFFF" d="M200.7,18.6h6.8v1.4h-5.2v3.5h5.1V25h-5.1v4.8h5.2v1.4h-6.8V18.6z"/>
	</g>
</g>
</svg>